PathFileType	4	(X/Y/Z)	G:\Shared drives\HPL_Drive\Pi-Spi Study\20230118_AMCsubject1\Trimmed_left_horiz_add01_rotated.trc
DataRate	CameraRate	NumFrames	NumMarkers	Units	OrigDataRate	OrigDataStartFrame	OrigNumFrames
200.00	200.00	       5	35	mm	200.00	1	       200
Frame#	Time	C7			Sternum			r_AMC1			r_AMC2			r_AMC3			l_AMC1			l_AMC2			l_AMC3			PX			T8			r_humerous			r_elbow_medial			r_elbow_lateral			r_forearm			r_wrist_radius			r_wrist_ulna			r_MCP_1			r_MCP_3			l_humerous			l_elbow_medial			l_elbow_lateral			l_forearm			l_wrist_radius			l_wrist_ulna			l_MCP_1			l_MCP_3			r_ASIS			r_PSIS			l_ASIS			l_PSIS			r_IC			l_IC			TS			AI			AA			
		X1	Y1	Z1	X2	Y2	Z2	X3	Y3	Z3	X4	Y4	Z4	X5	Y5	Z5	X6	Y6	Z6	X7	Y7	Z7	X8	Y8	Z8	X9	Y9	Z9	X10	Y10	Z10	X11	Y11	Z11	X12	Y12	Z12	X13	Y13	Z13	X14	Y14	Z14	X15	Y15	Z15	X16	Y16	Z16	X17	Y17	Z17	X18	Y18	Z18	X19	Y19	Z19	X20	Y20	Z20	X21	Y21	Z21	X22	Y22	Z22	X23	Y23	Z23	X24	Y24	Z24	X25	Y25	Z25	X26	Y26	Z26	X27	Y27	Z27	X28	Y28	Z28	X29	Y29	Z29	X30	Y30	Z30	X31	Y31	Z31	X32	Y32	Z32	X33	Y33	Z33	X34	Y34	Z34	X35	Y35	Z35	

1	0	178.076	1367.9746	-254.5387	313.6367	1320.5721	-228.2081	177.6871	1323.8635	-85.5612	211.2977	1330.7745	-49.4751	229.4646	1365.5555	-72.7451	233.4536	1341.3064	-408.503	278.8035	1363.7107	-418.3252	267.851	1388.1262	-371.949	391.3358	1131.2461	-215.905	159.2046	1189.3332	-252.315	295.9706	1148.1644	-28.8687	226.9087	1005.7581	-51.9931	247.4915	1015.9488	10.7979	304.2685	861.2867	28.2709	352.5451	798.6951	4.9209	306.866	792.3249	28.1969	376.1909	716.3086	14.9364	329.0697	712.2994	34.4414	417.6736	1330.9065	-297.6361	530.722	1240.5665	-264.6266	554.9625	1284.2367	-278.3674	672.5366	1313.4966	-169.2675	710.1736	1331.2695	-103.8547	722.6629	1290.9636	-109.4702	769.7562	1343.5072	-54.9447	776.0747	1300.3105	-54.7212	385.2534	907.393	-89.5115	190.4144	928.7686	-156.4759	364.9347	894.7268	-346.3182	182.6552	922.5231	-259.7474	306.16	971.9011	-55.703	274.6495	940.0801	-378.6012	144.8026	1296.3801	-387.8166	168.1947	1199.8926	-404.0895	242.7214	1340.1306	-475.6399
2	0.005	178.0913	1367.9902	-254.499	313.6264	1320.6638	-228.1467	177.7027	1323.8359	-85.5477	211.3197	1330.7492	-49.4791	229.4948	1365.5342	-72.695	233.4624	1341.302	-408.489	278.7913	1363.6742	-418.296	267.885	1388.0845	-371.983	391.2876	1131.2397	-215.8831	159.2483	1189.3363	-252.3207	296.061	1148.1851	-28.8722	226.9234	1005.7449	-52.0035	247.5224	1015.9428	10.8031	303.9915	861.1141	28.0702	352.6393	798.6506	4.8902	306.9154	792.351	28.1946	376.2368	716.351	14.9327	329.1724	712.2084	34.4408	417.6567	1330.9459	-297.6458	530.7017	1240.5852	-264.6277	554.9517	1284.2589	-278.384	672.5258	1313.5361	-169.2644	710.1838	1331.2506	-103.8806	722.6823	1290.9669	-109.4847	769.7658	1343.5251	-54.9715	776.141	1300.2274	-54.7364	385.2358	907.3613	-89.5426	190.4478	928.7517	-156.4796	364.9432	894.7227	-346.3157	182.6892	922.532	-259.7506	306.1531	971.8988	-55.7023	274.6424	940.0603	-378.5632	144.7652	1296.3571	-387.8079	168.2064	1199.884	-404.0869	242.6871	1340.1105	-475.6239
3	0.01	178.0953	1367.9618	-254.4896	313.6179	1320.6522	-228.1298	177.7083	1323.8359	-85.513	211.2914	1330.7993	-49.4781	229.4999	1365.5309	-72.6932	233.4577	1341.2952	-408.4853	278.8878	1363.64	-418.369	267.8698	1388.0792	-371.9362	391.3022	1131.2445	-215.8629	159.25	1189.335	-252.2794	296.0485	1148.1201	-28.8829	226.952	1005.7301	-51.9875	247.5149	1015.8628	10.7974	304.3526	861.2953	28.2391	352.6706	798.6516	4.9074	307.0087	792.2883	28.1429	376.2819	716.3606	14.9313	329.2582	712.1285	34.3965	417.6867	1330.884	-297.6143	530.7063	1240.5631	-264.6366	554.9458	1284.2966	-278.3812	672.7066	1313.5618	-169.3054	710.2164	1331.2556	-103.8881	722.7019	1290.9571	-109.4823	769.7641	1343.5673	-54.9745	776.1421	1300.2753	-54.7439	385.2102	907.3837	-89.5369	190.4428	928.755	-156.4818	364.9682	894.7309	-346.3271	182.7091	922.5272	-259.7462	306.1655	971.87	-55.7265	274.7027	940.0041	-378.6226	144.7765	1296.3069	-387.7966	168.1915	1199.863	-404.0454	242.6867	1340.0936	-475.6339
4	0.015	178.1096	1367.9657	-254.4647	313.6287	1320.6645	-228.1029	177.722	1323.8179	-85.4944	211.412	1330.6573	-49.4785	229.5264	1365.4779	-72.655	233.449	1341.2897	-408.4585	278.7837	1363.6658	-418.3054	267.8684	1388.0981	-371.946	391.2958	1131.2148	-215.8513	159.2535	1189.3368	-252.2674	296.0784	1148.0886	-28.8823	226.9784	1005.7249	-51.9948	247.5286	1015.8702	10.9849	304.3953	861.2807	28.275	352.7061	798.6694	4.9069	307.0254	792.3193	28.1737	376.3043	716.102	14.7391	329.2585	712.2255	34.3761	417.6471	1330.8811	-297.6488	530.7202	1240.532	-264.6427	555.0069	1284.2394	-278.4222	672.7812	1313.5051	-169.3363	710.196	1331.3133	-103.9212	722.698	1290.9999	-109.5059	769.772	1343.5584	-55.0039	776.1013	1300.4082	-54.743	385.2775	907.3808	-89.5424	190.4535	928.7648	-156.457	364.991	894.7424	-346.316	182.7022	922.51	-259.7333	306.1961	971.8205	-55.7256	274.6668	940.0433	-378.5844	144.7845	1296.3287	-387.7879	168.1725	1199.8275	-404.0069	242.667	1340.0649	-475.6058
5	0.02	178.113	1367.9808	-254.4459	313.6564	1320.5515	-228.195	177.7087	1323.8209	-85.4931	211.3501	1330.7076	-49.4168	229.5137	1365.5007	-72.6699	233.4413	1341.2812	-408.4536	278.7187	1363.7511	-418.3059	267.8747	1388.0931	-371.9376	391.2857	1131.1715	-215.8741	159.2494	1189.3184	-252.2241	296.1498	1148.1202	-28.8518	227.0315	1005.6926	-51.9837	247.5976	1015.8555	10.8183	304.4597	861.2793	28.2346	352.8317	798.644	4.8856	307.0517	792.3773	28.1677	376.3204	716.1806	14.781	329.3808	712.1743	34.3943	417.6589	1330.9369	-297.6481	530.7424	1240.5404	-264.641	554.997	1284.2233	-278.4056	672.2889	1313.1867	-169.1848	710.2186	1331.2932	-103.9147	722.7391	1290.9948	-109.5118	769.7688	1343.5803	-55.0098	776.171	1300.3015	-54.7228	385.2447	907.3668	-89.5117	190.4687	928.7445	-156.4708	364.9841	894.7246	-346.3227	182.7144	922.5277	-259.7322	306.1786	971.8388	-55.7468	274.6771	940.059	-378.5712	144.76	1296.2621	-387.7487	168.1552	1199.817	-403.942	242.6614	1340.0535	-475.5754
